<svg width="24" height="13" viewBox="0 0 24 13" fill="none" xmlns="http://www.w3.org/2000/svg">
<path d="M22.2839 2.24193H15.8738C15.5205 1.63625 14.8896 1.20723 14.1577 1.10628L11.8864 0.803442C10.6751 0.652023 9.46372 1.00533 8.52997 1.83814L6.25868 3.85707H4.82019V3.75612C4.82019 3.30186 4.44164 2.92332 3.98738 2.92332H0.832808C0.378549 2.92332 0 3.30186 0 3.75612V10.9486C0 11.4028 0.378549 11.7814 0.832808 11.7814H3.96215C4.4164 11.7814 4.79495 11.4028 4.79495 10.9486V10.8476H6.25868L6.41009 11.1C7.11672 12.2356 8.35331 12.917 9.69085 12.9422C11.0536 12.9675 13.0473 12.8918 14.8644 12.4627C15.041 12.5132 15.1924 12.5637 15.3943 12.5637H17.1861C18.1199 12.5637 18.877 11.8066 18.877 10.8728C18.877 10.4943 18.7508 10.1662 18.5489 9.88862C18.9527 9.58578 19.205 9.10628 19.205 8.57631C19.205 8.223 19.0789 7.89493 18.9022 7.61732C19.3312 7.31448 19.5836 6.80975 19.5836 6.27978C19.5836 6.05265 19.5331 5.85076 19.4574 5.64887H22.3092C23.2429 5.64887 24 4.89177 24 3.95802C23.9748 2.99903 23.2177 2.24193 22.2839 2.24193ZM2.39748 10.3933C1.99369 10.3933 1.64038 10.0653 1.64038 9.63625C1.64038 9.20723 1.96845 8.87915 2.39748 8.87915C2.80126 8.87915 3.15457 9.20723 3.15457 9.63625C3.15457 10.0653 2.8265 10.3933 2.39748 10.3933ZM13.4763 3.73089L12.2902 3.55423C12.0126 3.50376 11.735 3.70565 11.6845 4.00849C11.6341 4.28609 11.836 4.56369 12.1388 4.61417L12.7445 4.71511C11.8864 6.58262 10.0694 6.4312 9.96846 6.4312C9.69085 6.40597 9.41325 6.60786 9.38801 6.9107V6.96117C9.38801 7.23877 9.58991 7.4659 9.86751 7.49114C10.5994 7.56685 11.836 7.36496 12.8202 6.40597C12.8707 6.75928 13.0221 7.08735 13.2744 7.36496C13.4006 7.49114 13.5268 7.56685 13.653 7.6678C13.4763 7.9454 13.3754 8.24824 13.3754 8.60155C13.3754 9.13152 13.6278 9.61101 14.0315 9.91385C13.8297 10.1915 13.7035 10.5195 13.7035 10.8981C13.7035 11.1504 13.7539 11.4028 13.8801 11.6047C12.3912 11.8571 10.8517 11.9075 9.71609 11.9075C8.73186 11.9075 7.84858 11.4028 7.31861 10.57L7.01577 10.0905C6.91483 9.93909 6.73817 9.83814 6.56151 9.83814H4.82019V4.89177H6.46057C6.58675 4.89177 6.71293 4.8413 6.81388 4.76559L9.23659 2.62048C9.91798 2.0148 10.8517 1.7372 11.7603 1.86338L14.0315 2.16622C14.6877 2.24193 15.1672 2.82237 15.1672 3.47852L15.1167 6.20407C15.1167 6.53215 14.8391 6.80975 14.511 6.80975C14.3344 6.80975 14.183 6.73404 14.0568 6.60786C13.9306 6.48168 13.8801 6.33026 13.8801 6.1536L13.9558 4.28609C13.9558 3.98325 13.7539 3.75612 13.4763 3.73089ZM17.1609 11.4785H15.3691C15.0158 11.4785 14.7382 11.2009 14.7382 10.8476C14.7382 10.4943 15.0158 10.2167 15.3691 10.2167H17.1609C17.5142 10.2167 17.7918 10.4943 17.7918 10.8476C17.7918 11.2009 17.5142 11.4785 17.1609 11.4785ZM17.489 9.15676H15.041C14.6877 9.15676 14.4101 8.87915 14.4101 8.52584C14.4101 8.17253 14.6877 7.89493 15.041 7.89493H17.489C17.8423 7.89493 18.1199 8.17253 18.1199 8.52584C18.1199 8.87915 17.8423 9.15676 17.489 9.15676ZM17.8675 6.86022H15.9748C16.0757 6.65833 16.1262 6.4312 16.1262 6.20407V5.62363H17.8675C18.2208 5.62363 18.4984 5.90123 18.4984 6.25455C18.4984 6.58262 18.2208 6.86022 17.8675 6.86022ZM22.2839 4.53846H16.1767L16.2019 3.45328C16.2019 3.40281 16.2019 3.3271 16.2019 3.27663H22.3092C22.6625 3.27663 22.9401 3.55423 22.9401 3.90754C22.9401 4.26086 22.6372 4.53846 22.2839 4.53846Z" fill="white"/>
</svg>
